<mxfile host="app.diagrams.net" modified="2022-04-06T01:43:35.074Z" agent="5.0 (Windows NT 10.0; Win64; x64) AppleWebKit/537.36 (KHTML, like Gecko) Chrome/100.0.4896.60 Safari/537.36 Edg/100.0.1185.29" etag="B8WbsOWm1b_bNznZ-LBJ" version="17.3.0" type="github">
  <diagram name="Page-1" id="e7e014a7-5840-1c2e-5031-d8a46d1fe8dd">
    <mxGraphModel dx="1221" dy="634" grid="1" gridSize="10" guides="1" tooltips="1" connect="1" arrows="1" fold="1" page="1" pageScale="1" pageWidth="1169" pageHeight="826" background="none" math="0" shadow="0">
      <root>
        <mxCell id="0" />
        <mxCell id="1" parent="0" />
        <mxCell id="ZfTb3w4SBTIdW1wGuKT9-42" value="数据的状态" style="swimlane;" vertex="1" parent="1">
          <mxGeometry x="30" y="90" width="180" height="330" as="geometry" />
        </mxCell>
        <mxCell id="ZfTb3w4SBTIdW1wGuKT9-43" value="上传后待发布" style="rounded=0;whiteSpace=wrap;html=1;" vertex="1" parent="ZfTb3w4SBTIdW1wGuKT9-42">
          <mxGeometry x="30" y="40" width="120" height="60" as="geometry" />
        </mxCell>
        <mxCell id="ZfTb3w4SBTIdW1wGuKT9-44" value="发布后待认领&lt;br&gt;认领未完成" style="rounded=0;whiteSpace=wrap;html=1;" vertex="1" parent="ZfTb3w4SBTIdW1wGuKT9-42">
          <mxGeometry x="30" y="110" width="120" height="60" as="geometry" />
        </mxCell>
        <mxCell id="ZfTb3w4SBTIdW1wGuKT9-45" value="认领完成" style="rounded=0;whiteSpace=wrap;html=1;" vertex="1" parent="ZfTb3w4SBTIdW1wGuKT9-42">
          <mxGeometry x="30" y="250" width="120" height="60" as="geometry" />
        </mxCell>
        <mxCell id="ZfTb3w4SBTIdW1wGuKT9-46" value="驳回" style="rounded=0;whiteSpace=wrap;html=1;" vertex="1" parent="ZfTb3w4SBTIdW1wGuKT9-42">
          <mxGeometry x="30" y="180" width="120" height="60" as="geometry" />
        </mxCell>
      </root>
    </mxGraphModel>
  </diagram>
</mxfile>
